<svg id="图层_1" data-name="图层 1" xmlns="http://www.w3.org/2000/svg" viewBox="0 0 300 300"><defs><style>.cls-1{fill:#3d3e49;}.cls-2{fill:#83dca0;}.cls-3{fill:#00aa6f;}.cls-4{fill:#303030;}</style></defs><polygon class="cls-1" points="46.36 150.59 78.76 150.59 62.56 134.39 46.36 150.59"/><polygon class="cls-2" points="46.41 150.53 46.41 118.24 62.56 134.39 46.41 150.53"/><polygon class="cls-1" points="30.65 150.59 46.36 150.59 38.51 158.44 30.65 150.59"/><polygon class="cls-3" points="62.56 134.39 62.56 182.5 38.51 158.44 62.56 134.39"/><path class="cls-4" d="M121.83,157.23a10.56,10.56,0,0,1,10.72-10.84c6.21,0,10.37,4.62,10.37,11.35V159H127.53c.39,2.53,2.45,4.62,6,4.62a8.59,8.59,0,0,0,5.48-2l2.45,3.6a12.9,12.9,0,0,1-8.53,2.87C126.59,168.11,121.83,163.87,121.83,157.23Zm10.72-6.39a4.78,4.78,0,0,0-5.06,4.42h10.2A4.74,4.74,0,0,0,132.55,150.84Z"/><path class="cls-4" d="M159.16,167.6V155.08c0-2.87-1.5-3.85-3.82-3.85a6,6,0,0,0-4.71,2.4v14h-5.44V146.9h5.44v2.66a9.66,9.66,0,0,1,7.24-3.17c4.59,0,6.77,2.57,6.77,6.6V167.6Z"/><path class="cls-4" d="M166.91,157.23a11,11,0,1,1,10.93,10.88A10.49,10.49,0,0,1,166.91,157.23Zm16.24,0c0-3.22-1.88-6-5.31-6s-5.27,2.78-5.27,6,1.89,6,5.27,6S183.15,160.48,183.15,157.23Z"/><path class="cls-4" d="M205.05,167.6V155.08c0-2.87-1.5-3.85-3.81-3.85a6.08,6.08,0,0,0-4.72,2.4v14h-5.44V146.9h5.44v2.66a9.66,9.66,0,0,1,7.25-3.17c4.58,0,6.77,2.57,6.77,6.6V167.6Z"/><path class="cls-4" d="M215.07,167.6V139h11.27c8.95,0,15.17,5.69,15.17,14.26s-6.22,14.32-15.13,14.32Zm20.22-14.32c0-5-3.08-8.91-8.91-8.91h-5.23v17.87h5.19C232,162.24,235.29,158.17,235.29,153.28Z"/><path class="cls-4" d="M245.84,167.6V139h15c5.44,0,8.22,3.47,8.22,7.28a6.38,6.38,0,0,1-4.92,6.56,6.86,6.86,0,0,1,5.48,7c0,4.33-2.83,7.76-8.31,7.76Zm17-20.23c0-1.75-1.28-3-3.34-3h-7.63v6h7.63C261.61,150.37,262.89,149.21,262.89,147.37Zm.56,11.61c0-1.8-1.29-3.25-3.64-3.25h-7.89v6.51h7.89C262.08,162.24,263.45,161,263.45,159Z"/><polygon class="cls-4" points="120.78 134.58 109.03 151.52 104.49 158.05 97.27 168.46 88.2 168.46 99.96 151.52 104.49 144.99 111.72 134.58 120.78 134.58"/><polygon class="cls-4" points="104.49 144.99 99.96 151.52 88.2 134.58 97.27 134.58 104.49 144.99"/><polygon class="cls-4" points="109.04 151.54 104.5 158.07 104.49 158.05 109.03 151.52 109.04 151.54"/><polygon class="cls-4" points="120.78 168.46 111.72 168.46 106.05 160.31 110.59 153.78 120.78 168.46"/></svg>